<?xml version="1.0" encoding="UTF-8" standalone="no"?>
<!-- Uploaded to: SVG Repo, www.svgrepo.com, Generator: SVG Repo Mixer Tools -->

<svg
   fill="#000000"
   width="681.2442"
   height="800.125"
   viewBox="0 0 54.499536 64.01"
   version="1.1"
   id="svg1"
   xmlns="http://www.w3.org/2000/svg"
   xmlns:svg="http://www.w3.org/2000/svg">
  <defs
     id="defs1" />
  <g
     id="ai"
     transform="matrix(1.1428317,0,0,1.1428317,-9.3100421,-4.5713268)">
    <path
       d="M 13.36,21.78 8.21,46.24 c -0.2,0.94 0.08,1.92 0.73,2.62 l 9.99,10.66 c 0.28,0.3 0.67,0.47 1.08,0.49 h 0.05 c 0.39,0 0.77,-0.15 1.05,-0.42 0.22,-0.21 0.38,-0.47 0.45,-0.77 l 2.17,-9.09 6.9,3.61 c 0.85,0.44 1.86,0.44 2.72,0 l 6.9,-3.61 2.17,9.09 c 0.2,0.83 1.03,1.34 1.86,1.14 0.29,-0.07 0.56,-0.22 0.77,-0.44 l 9.99,-10.66 c 0.66,-0.7 0.93,-1.68 0.73,-2.62 L 50.62,21.78 C 50.46,21.03 50.2,20.31 49.83,19.63 L 43.37,7.71 45.08,6.4 C 45.67,5.95 45.78,5.11 45.33,4.52 45.08,4.19 44.68,4 44.27,4 H 19.72 c -0.74,0 -1.34,0.6 -1.34,1.34 0,0.42 0.2,0.81 0.53,1.07 l 1.71,1.31 -6.46,11.92 c -0.37,0.67 -0.63,1.4 -0.79,2.15 z M 20.12,4.82 Z m -4.9,17.87 10.62,7.49 -15.21,14.34 4.6,-21.82 z m 4.6,34.83 -9.41,-10.04 v 0 L 25.67,33.09 19.83,57.52 Z m 12.62,-5.97 c -0.27,0.14 -0.59,0.14 -0.86,0 l -7.35,-3.84 3.93,-16.43 c 0.24,-1 -0.15,-2.02 -0.99,-2.61 l -1.52,-1.07 6.36,-4.93 6.36,4.93 -1.52,1.07 c -0.84,0.59 -1.23,1.62 -0.99,2.61 l 3.93,16.43 z M 27.71,16.81 c -0.06,-0.05 -0.08,-0.13 -0.04,-0.2 l 1.4,-2.43 1.52,1.17 c 0.83,0.63 1.99,0.64 2.82,0 l 1.52,-1.17 1.4,2.43 c 0.04,0.07 0.02,0.15 -0.04,0.2 L 32,20.13 Z M 44.19,57.52 38.35,33.09 53.61,47.47 v 0 L 44.2,57.52 Z M 53.39,44.51 38.18,30.17 48.8,22.68 53.4,44.5 Z M 48.14,20.7 40.08,26.38 33.64,21.4 37.52,18.39 c 0.85,-0.66 1.09,-1.85 0.55,-2.78 l -1.53,-2.65 5.24,-4.01 c 6.31,11.64 5.81,10.69 6.35,11.76 z M 42.35,5.99 41.5,6.64 v 0 l -9.3,7.12 c -0.12,0.09 -0.28,0.09 -0.39,0 l -9.3,-7.12 v 0 L 21.66,5.99 Z m -20.12,2.95 5.24,4.01 -1.53,2.65 c -0.54,0.93 -0.3,2.13 0.55,2.78 l 3.88,3.01 -6.44,4.98 -8.06,-5.68 c 0.56,-1.09 0.06,-0.14 6.35,-11.76 z"
       id="path1" />
  </g>
</svg>
