<?xml version="1.0" encoding="UTF-8" standalone="no"?>
<svg
   viewBox="0 0 3243.9587 3776.6228"
   version="1.1"
   id="svg1"
   width="3243.9587"
   height="3776.6228"
   xmlns="http://www.w3.org/2000/svg"
   xmlns:svg="http://www.w3.org/2000/svg">
  <defs
     id="defs1" />
  <g
     id="g2"
     transform="translate(-425.40354,-160)">
    <path
       id="path1"
       style="fill:#ffffff;fill-opacity:1;stroke:#ffffff;stroke-width:3;stroke-linecap:round;stroke-linejoin:round;stroke-dasharray:none;stroke-opacity:1;paint-order:stroke markers fill"
       d="m 19.720703,4 c -0.74,0 -1.339844,0.5998438 -1.339844,1.3398438 0,0.4199999 0.199297,0.8103125 0.529297,1.0703124 l 1.708985,1.3105469 -6.458985,11.9199219 c -0.37,0.67 -0.631015,1.398437 -0.791015,2.148437 l -0.0098,-0.0098 -5.1484375,24.460937 c -0.2,0.94 0.078516,1.919141 0.7285156,2.619141 l 9.9902349,10.660156 c 0.28,0.3 0.670078,0.470235 1.080078,0.490235 h 0.05078 c 0.39,0 0.768828,-0.149922 1.048828,-0.419922 0.22,-0.21 0.381172,-0.469532 0.451172,-0.769532 l 2.169922,-9.089843 6.90039,3.609375 c 0.85,0.44 1.85875,0.44 2.71875,0 l 6.900426,-3.60934 2.169922,9.089843 c 0.2,0.83 1.029375,1.340625 1.859375,1.140626 0.29,-0.07 0.561484,-0.221407 0.771484,-0.441407 l 9.988281,-10.660156 c 0.66,-0.7 0.930469,-1.679141 0.730469,-2.619141 l -5.15039,-24.460937 c -0.16,-0.75 -0.419063,-1.468438 -0.789063,-2.148438 L 43.369141,7.7109375 45.080078,6.4003906 c 0.59,-0.45 0.7,-1.2908594 0.25,-1.8808594 C 45.080078,4.1895312 44.679531,4 44.269531,4 Z m -3.851562,16.689453 c 0.56,-1.09 0,0 0,0 z m 32.93164,1.990235 4.59961,21.820312 -0.0098,0.0098 z m -33.580078,0.0098 -4.589844,21.830078 4.59961,-21.820312 z m 4.609375,34.830078 h -0.0098 L 10.410156,47.480469 Z M 53.609375,47.470703 44.199219,57.519531 h -0.0098 z" />
    <path
       style="stroke:none;stroke-width:2;stroke-linecap:round;stroke-linejoin:round;stroke-dasharray:none;stroke-opacity:1;paint-order:stroke markers fill"
       d="m 13.369454,21.775 -5.1500005,24.46 c -0.2,0.94 0.08,1.92 0.73,2.62 l 9.9900005,10.66 c 0.28,0.3 0.67,0.47 1.08,0.49 h 0.05 c 0.39,0 0.77,-0.15 1.05,-0.42 0.22,-0.21 0.38,-0.47 0.45,-0.77 l 2.17,-9.09 6.900003,3.61 c 0.85,0.44 1.86,0.44 2.72,0 l 6.9,-3.61 2.17,9.09 c 0.2,0.83 1.03,1.34 1.86,1.14 0.29,-0.07 0.56,-0.22 0.77,-0.44 l 9.99,-10.66 c 0.66,-0.7 0.93,-1.68 0.73,-2.62 l -5.15,-24.46 c -0.16,-0.75 -0.42,-1.47 -0.79,-2.15 l -6.46,-11.9200001 1.71,-1.31 c 0.59,-0.45 0.7,-1.29 0.25,-1.88 -0.25,-0.33 -0.65,-0.52 -1.06,-0.52 H 19.729454 c -0.74,0 -1.34,0.6 -1.34,1.34 0,0.42 0.2,0.81 0.53,1.07 l 1.71,1.31 -6.46,11.9200001 c -0.37,0.67 -0.63,1.4 -0.79,2.15 z m 6.76,-16.9600001 z m -4.9,17.8700001 10.62,7.49 -15.21,14.34 4.6,-21.82 z m 4.6,34.83 -9.41,-10.04 v 0 l 15.26,-14.39 -5.84,24.43 z m 12.620003,-5.97 c -0.27,0.14 -0.59,0.14 -0.86,0 l -7.350003,-3.84 3.930003,-16.43 c 0.24,-1 -0.15,-2.02 -0.990003,-2.61 l -1.52,-1.07 6.360003,-4.93 6.36,4.93 -1.52,1.07 c -0.84,0.59 -1.23,1.62 -0.99,2.61 l 3.93,16.43 z m -4.730003,-34.74 c -0.06,-0.05 -0.08,-0.13 -0.04,-0.2 l 1.400003,-2.43 1.52,1.17 c 0.83,0.63 1.99,0.64 2.82,0 l 1.52,-1.17 1.4,2.43 c 0.04,0.07 0.02,0.15 -0.04,0.2 l -4.29,3.32 z m 16.480003,40.71 -5.84,-24.43 15.26,14.38 v 0 l -9.41,10.05 z m 9.2,-13.01 -15.21,-14.34 10.62,-7.49 4.6,21.82 z m -5.25,-23.81 -8.06,5.68 -6.44,-4.98 3.88,-3.01 c 0.85,-0.66 1.09,-1.85 0.55,-2.78 l -1.53,-2.65 5.24,-4.0099998 c 6.31,11.6399998 5.81,10.6899998 6.35,11.7599998 z m -5.79,-14.7100001 -0.85,0.65 v 0 l -9.3,7.1200001 c -0.12,0.09 -0.28,0.09 -0.39,0 L 22.519454,6.6349999 v 0 l -0.85,-0.65 z m -20.120003,2.9500003 5.24,4.0099998 -1.53,2.65 c -0.54,0.93 -0.3,2.13 0.55,2.78 l 3.880003,3.01 -6.440003,4.98 -8.06,-5.68 c 0.56,-1.09 0.06,-0.14 6.35,-11.7599998 z"
       id="path2" />
  </g>
</svg>
